<svg id="Capa_1" enable-background="new 0 0 512 512" height="512" viewBox="0 0 512 512" width="512" xmlns="http://www.w3.org/2000/svg"><g><g><path d="m278.894 512h-45.789c-5.747 0-10.407-4.659-10.407-10.406v-22.894h66.602v22.894c.001 5.747-4.658 10.406-10.406 10.406z" fill="#738b95"/></g><g><path d="m401.691 214.374c0-80.463-65.228-145.691-145.691-145.691s-145.691 65.228-145.691 145.691c0 58.801 34.838 109.459 84.997 132.477l6.581 48.596h108.228l6.581-48.596c50.157-23.018 84.995-73.676 84.995-132.477z" fill="#eab14d"/></g><g><path d="m334.047 91.336c17.045 24.206 27.059 53.72 27.059 85.575 0 82.187-66.626 148.813-148.813 148.813-23.656 0-46.018-5.529-65.878-15.351 13.464 15.354 30.102 27.856 48.891 36.478l6.581 48.596h108.228l6.581-48.596c50.158-23.018 84.997-73.676 84.997-132.477-.002-51.749-26.985-97.191-67.646-123.038z" fill="#e7a52e"/></g><g><path d="m272.651 403.174c-4.268 0-7.726-3.459-7.726-7.726v-151.936c0-18.032 14.67-32.702 32.701-32.702 18.032 0 32.702 14.67 32.702 32.702 0 9.291-3.973 18.175-10.898 24.373-3.18 2.846-8.065 2.575-10.91-.605s-2.574-8.064.605-10.91c3.655-3.271 5.751-7.958 5.751-12.858 0-9.511-7.738-17.249-17.249-17.249s-17.249 7.738-17.249 17.249v151.935c-.001 4.267-3.459 7.727-7.727 7.727z" fill="#f9f6f9"/></g><g><path d="m239.35 403.174c-4.267 0-7.726-3.459-7.726-7.726v-151.936c0-9.511-7.738-17.249-17.249-17.249s-17.249 7.738-17.249 17.249c0 4.9 2.096 9.588 5.751 12.858 3.18 2.846 3.451 7.73.605 10.91-2.847 3.18-7.731 3.45-10.91.605-6.927-6.199-10.899-15.083-10.899-24.373 0-18.032 14.67-32.702 32.702-32.702s32.702 14.67 32.702 32.702v151.935c-.001 4.267-3.46 7.727-7.727 7.727z" fill="#f9f6f9"/></g><g><g><path d="m391.389 33.301h-270.778c-5.69 0-10.302-4.612-10.302-10.302v-12.697c0-5.69 4.612-10.302 10.302-10.302h270.779c5.69 0 10.302 4.612 10.302 10.302v12.697c-.001 5.69-4.613 10.302-10.303 10.302z" fill="#8993da"/></g><g><path d="m256 114.743-101.652-38.119c-3.366 12.903-5.195 25.093-6.117 32.738-.569 4.72 2.159 9.213 6.611 10.883l97.541 36.578c2.332.875 4.902.875 7.234 0l97.541-36.578c4.452-1.669 7.18-6.162 6.611-10.883-.922-7.645-2.751-19.835-6.117-32.738z" fill="#ffe07d"/></g><g><path d="m256 114.743 101.651-38.119c-4.091-15.681-10.45-32.415-20.209-43.323h-162.884c-9.759 10.907-16.119 27.641-20.209 43.323z" fill="#707dd3"/></g></g><g><path d="m318.439 428.748h-124.878c-5.747 0-10.407-4.659-10.407-10.406v-12.488c0-5.747 4.659-10.407 10.407-10.407h124.878c5.747 0 10.406 4.659 10.406 10.407v12.488c.001 5.747-4.659 10.406-10.406 10.406z" fill="#9bb9c1"/></g><g><path d="m318.439 395.447h-35.382c5.747 0 10.406 4.659 10.406 10.407v12.488c0 5.747-4.659 10.406-10.406 10.406h35.382c5.747 0 10.406-4.659 10.406-10.406v-12.488c.001-5.748-4.659-10.407-10.406-10.407z" fill="#86a0af"/></g><g><path d="m291.382 478.699h-70.764c-9.196 0-16.65-7.455-16.65-16.65v-33.301h104.065v33.301c0 9.196-7.455 16.65-16.651 16.65z" fill="#8993da"/></g><g><path d="m278.894 428.748v33.301c0 9.196-7.455 16.65-16.65 16.65h29.138c9.196 0 16.65-7.455 16.65-16.65v-33.301z" fill="#707dd3"/></g></g></svg>